<svg width="14" height="16" viewBox="0 0 14 16" fill="none" xmlns="http://www.w3.org/2000/svg">
<path d="M3.89197 6.79597H9.16764C9.28111 6.79597 9.39876 6.85321 9.48904 6.94349C9.57932 7.03377 9.63656 7.15142 9.63656 7.26489C9.63656 7.37836 9.57932 7.49601 9.48904 7.58629C9.39876 7.67657 9.28111 7.73381 9.16764 7.73381H3.89197C3.77289 7.73381 3.65545 7.69406 3.56843 7.61671C3.48233 7.54018 3.42305 7.4243 3.42305 7.26489C3.42305 7.15142 3.48028 7.03377 3.57056 6.94349C3.66084 6.85321 3.7785 6.79597 3.89197 6.79597Z" fill="#8493A8" stroke="#8493A8" stroke-width="0.1"/>
<path d="M13.0095 5.1027V13.3189C13.0095 14.592 12.0764 15.779 10.7212 15.95H9.42703H9.34054H2.76757C1.23843 15.95 0.05 14.7616 0.05 13.2324V3.54595V3.37505L0.136228 2.34032C0.306378 0.983061 1.40837 0.05 2.76757 0.05H7.95676C8.46575 0.05 8.97074 0.219827 9.30519 0.554274L12.4187 3.66779C12.8408 4.08986 13.0095 4.59559 13.0095 5.1027ZM0.987838 13.3189C0.987838 14.2979 1.7886 15.0986 2.76757 15.0986H10.2919C11.2709 15.0986 12.0716 14.2979 12.0716 13.3189V5.1027C12.0716 4.83332 11.982 4.55993 11.7975 4.37546L8.684 1.26194C8.49953 1.07747 8.22614 0.987838 7.95676 0.987838H2.76757C1.7886 0.987838 0.987838 1.7886 0.987838 2.76757V13.3189Z" fill="#8493A8" stroke="#8493A8" stroke-width="0.1"/>
<path d="M3.89197 10.1689H9.16764C9.28672 10.1689 9.40416 10.2086 9.49118 10.286C9.57728 10.3625 9.63656 10.4784 9.63656 10.6378C9.63656 10.7513 9.57932 10.8689 9.48904 10.9592C9.39876 11.0495 9.28111 11.1067 9.16764 11.1067H3.89197C3.7785 11.1067 3.66084 11.0495 3.57056 10.9592C3.48028 10.8689 3.42305 10.7513 3.42305 10.6378C3.42305 10.5243 3.48028 10.4067 3.57056 10.3164C3.66084 10.2261 3.7785 10.1689 3.89197 10.1689Z" fill="#8493A8" stroke="#8493A8" stroke-width="0.1"/>
</svg>
