<svg width="19" height="19" viewBox="0 0 19 19" fill="none" xmlns="http://www.w3.org/2000/svg">
<path d="M9.5 18C4.81328 18 1 14.1867 1 9.5C1 4.81328 4.81328 1 9.5 1C14.1867 1 18 4.81328 18 9.5C18 14.1867 14.1867 18 9.5 18ZM9.5 1.58621C5.13628 1.58621 1.58621 5.13628 1.58621 9.5C1.58621 13.8637 5.13628 17.4138 9.5 17.4138C13.8637 17.4138 17.4138 13.8637 17.4138 9.5C17.4138 5.13628 13.8637 1.58621 9.5 1.58621Z" fill="#54657E" stroke="#54657E" stroke-width="0.4"/>
<path d="M13.8963 14.4829C13.7345 14.4829 13.6032 14.3516 13.6032 14.1898C13.6032 11.7652 11.7625 9.79324 9.49971 9.79324C7.23696 9.79324 5.39627 11.7652 5.39627 14.1898C5.39627 14.3516 5.26496 14.4829 5.10316 14.4829C4.94137 14.4829 4.81006 14.3516 4.81006 14.1898C4.81006 11.4422 6.91396 9.20703 9.49971 9.20703C12.0855 9.20703 14.1894 11.4422 14.1894 14.1898C14.1894 14.3516 14.0581 14.4829 13.8963 14.4829Z" fill="#54657E" stroke="#54657E" stroke-width="0.4"/>
<path d="M9.5001 8.03438C8.20693 8.03438 7.15527 6.98273 7.15527 5.68955C7.15527 4.39638 8.20693 3.34473 9.5001 3.34473C10.7933 3.34473 11.8449 4.39638 11.8449 5.68955C11.8449 6.98273 10.7933 8.03438 9.5001 8.03438ZM9.5001 3.93093C8.53051 3.93093 7.74148 4.71997 7.74148 5.68955C7.74148 6.65914 8.53051 7.44817 9.5001 7.44817C10.4697 7.44817 11.2587 6.65914 11.2587 5.68955C11.2587 4.71997 10.4697 3.93093 9.5001 3.93093Z" fill="#54657E" stroke="#54657E" stroke-width="0.4"/>
</svg>
