<svg width="22" height="22" viewBox="0 0 22 22" fill="none" xmlns="http://www.w3.org/2000/svg">
<path d="M19.3333 21H2.66667C1.748 21 1 20.2527 1 19.3333V2.66667C1 1.74733 1.748 1 2.66667 1H19.3333C20.252 1 21 1.74733 21 2.66667V19.3333C21 20.2527 20.252 21 19.3333 21ZM2.66667 1.66667C2.11533 1.66667 1.66667 2.11533 1.66667 2.66667V19.3333C1.66667 19.8847 2.11533 20.3333 2.66667 20.3333H19.3333C19.8847 20.3333 20.3333 19.8847 20.3333 19.3333V2.66667C20.3333 2.11533 19.8847 1.66667 19.3333 1.66667H2.66667Z" fill="#54657E" stroke="#54657E" stroke-width="0.9"/>
<path d="M20.6667 5.66667H1.33333C1.14933 5.66667 1 5.51733 1 5.33333C1 5.14933 1.14933 5 1.33333 5H20.6667C20.8507 5 21 5.14933 21 5.33333C21 5.51733 20.8507 5.66667 20.6667 5.66667Z" fill="#54657E" stroke="#54657E" stroke-width="0.9"/>
<path d="M16.6657 8.99998H5.33236C5.14836 8.99998 4.99902 8.85065 4.99902 8.66665C4.99902 8.48265 5.14836 8.33331 5.33236 8.33331H16.6657C16.8497 8.33331 16.999 8.48265 16.999 8.66665C16.999 8.85065 16.8497 8.99998 16.6657 8.99998Z" fill="#54657E" stroke="#54657E" stroke-width="0.9"/>
<path d="M16.6657 12.3333H5.33236C5.14836 12.3333 4.99902 12.184 4.99902 12C4.99902 11.816 5.14836 11.6667 5.33236 11.6667H16.6657C16.8497 11.6667 16.999 11.816 16.999 12C16.999 12.184 16.8497 12.3333 16.6657 12.3333Z" fill="#54657E" stroke="#54657E" stroke-width="0.9"/>
<path d="M16.6657 15.6667H5.33236C5.14836 15.6667 4.99902 15.5173 4.99902 15.3333C4.99902 15.1493 5.14836 15 5.33236 15H16.6657C16.8497 15 16.999 15.1493 16.999 15.3333C16.999 15.5173 16.8497 15.6667 16.6657 15.6667Z" fill="#54657E" stroke="#54657E" stroke-width="0.9"/>
</svg>
