<svg width="24" height="24" viewBox="0 0 24 24" fill="none" xmlns="http://www.w3.org/2000/svg">
<path d="M22.7035 23.0003H5.48726C5.32341 23.0003 5.19043 22.8673 5.19043 22.7035V5.48729C5.19043 5.32344 5.32341 5.19046 5.48726 5.19046H22.7035C22.8673 5.19046 23.0003 5.32344 23.0003 5.48729V22.7035C23.0003 22.8673 22.8673 23.0003 22.7035 23.0003ZM5.78409 22.4067H22.4066V5.78412H5.78409V22.4067Z" fill="#54657E" stroke="#54657E"/>
<path d="M22.7037 18.9245C22.6176 18.9245 22.5327 18.8871 22.4739 18.8153L17.4617 12.6899L15.9063 14.557C15.8018 14.6834 15.6148 14.6994 15.4883 14.5949C15.3625 14.4899 15.3458 14.3029 15.4509 14.1764L17.2367 12.0339C17.2931 11.9662 17.3762 11.927 17.4646 11.927C17.4652 11.927 17.4658 11.927 17.4658 11.927C17.5543 11.927 17.6386 11.9674 17.6944 12.0363L22.934 18.4407C23.0379 18.5671 23.0195 18.7541 22.8925 18.8586C22.8367 18.9026 22.7696 18.9245 22.7037 18.9245Z" fill="#54657E" stroke="#54657E"/>
<path d="M18.212 17.7604C18.1259 17.7604 18.041 17.723 17.9823 17.6511L11.4751 9.69844L5.71661 16.7363C5.61331 16.8639 5.42571 16.8818 5.29926 16.7785C5.17222 16.6746 5.15382 16.4876 5.25771 16.3605L11.2454 9.04185C11.3576 8.90412 11.5921 8.90412 11.7043 9.04185L18.4412 17.2759C18.545 17.4024 18.5266 17.5894 18.3996 17.6939C18.3444 17.7384 18.2779 17.7604 18.212 17.7604Z" fill="#54657E" stroke="#54657E"/>
<path fill-rule="evenodd" clip-rule="evenodd" d="M18.8099 3.09521V1.29683C18.8099 1.13298 18.6769 1 18.513 1H1.29683C1.13298 1 1 1.13298 1 1.29683V18.513C1 18.6769 1.13298 18.8099 1.29683 18.8099H3.09469V18.2162H1.59366V1.59366H18.2162V3.09521H18.8099Z" fill="#54657E"/>
<path d="M18.8099 3.09521V3.59521H19.3099V3.09521H18.8099ZM3.09469 18.8099V19.3099H3.59469V18.8099H3.09469ZM3.09469 18.2162H3.59469V17.7162H3.09469V18.2162ZM1.59366 18.2162H1.09366V18.7162H1.59366V18.2162ZM1.59366 1.59366V1.09366H1.09366V1.59366H1.59366ZM18.2162 1.59366H18.7162V1.09366H18.2162V1.59366ZM18.2162 3.09521H17.7162V3.59521H18.2162V3.09521ZM18.3099 1.29683V3.09521H19.3099V1.29683H18.3099ZM18.513 1.5C18.4007 1.5 18.3099 1.40912 18.3099 1.29683H19.3099C19.3099 0.856838 18.953 0.5 18.513 0.5V1.5ZM1.29683 1.5H18.513V0.5H1.29683V1.5ZM1.5 1.29683C1.5 1.40912 1.40912 1.5 1.29683 1.5V0.5C0.856838 0.5 0.5 0.856838 0.5 1.29683H1.5ZM1.5 18.513V1.29683H0.5V18.513H1.5ZM1.29683 18.3099C1.40912 18.3099 1.5 18.4007 1.5 18.513H0.5C0.5 18.953 0.856838 19.3099 1.29683 19.3099V18.3099ZM3.09469 18.3099H1.29683V19.3099H3.09469V18.3099ZM3.59469 18.8099V18.2162H2.59469V18.8099H3.59469ZM1.59366 18.7162H3.09469V17.7162H1.59366V18.7162ZM1.09366 1.59366V18.2162H2.09366V1.59366H1.09366ZM18.2162 1.09366H1.59366V2.09366H18.2162V1.09366ZM18.7162 3.09521V1.59366H17.7162V3.09521H18.7162ZM18.2162 3.59521H18.8099V2.59521H18.2162V3.59521Z" fill="#54657E"/>
</svg>
