<svg width="24" height="24" viewBox="0 0 24 24" fill="none" xmlns="http://www.w3.org/2000/svg">
<path d="M1.45865 23C1.37248 23 1.2909 22.9762 1.22031 22.9331C1.19465 22.9175 1.17081 22.8992 1.14881 22.8799C1.08648 22.8222 1.03882 22.747 1.0159 22.6608C1.00948 22.637 1.0049 22.6113 1.00215 22.5866C0.997565 22.5371 1.00032 22.4885 1.0104 22.4427L2.8419 13.2861C2.8639 13.1752 2.92623 13.0771 3.01606 13.0093L10.3494 7.50928C10.5318 7.37269 10.7866 7.39011 10.948 7.55144L16.448 13.0514C16.6093 13.2128 16.6276 13.4685 16.4901 13.65L10.9901 20.9833C10.9223 21.0741 10.8242 21.1364 10.7133 21.1575L1.54665 22.9908C1.51823 22.9973 1.48798 23 1.45865 23ZM7.87531 15.6667C7.99264 15.6667 8.10997 15.7116 8.1998 15.8005C8.37855 15.9793 8.37855 16.2698 8.1998 16.4486L2.85381 21.7955L10.3641 20.2931L15.5203 13.4181L10.5822 8.48003L3.70723 13.6363L2.20481 21.1465L7.55172 15.8005C7.64064 15.7116 7.75797 15.6667 7.87531 15.6667Z" fill="#54657E" stroke="#54657E" stroke-width="0.5"/>
<path d="M17.9593 12.9167C17.842 12.9167 17.7247 12.8718 17.6348 12.7828L11.2182 6.36619C11.0532 6.20119 11.0385 5.93811 11.1843 5.75569L14.8509 1.17236C14.9389 1.06328 15.07 1.00003 15.2093 1.00003H22.5427C22.7957 1.00003 23.001 1.20536 23.001 1.45836V8.79168C23.001 8.93102 22.9378 9.0621 22.8287 9.1501L18.2453 12.8168C18.1619 12.8837 18.0602 12.9167 17.9593 12.9167ZM12.1569 6.00777L17.9933 11.8442L22.0843 8.57169V1.9167H15.4293L12.1569 6.00777Z" fill="#54657E" stroke="#54657E" stroke-width="0.5"/>
<path d="M9.24935 16.5833C8.23826 16.5833 7.41602 15.7611 7.41602 14.75C7.41602 13.7389 8.23826 12.9167 9.24935 12.9167C10.2604 12.9167 11.0827 13.7389 11.0827 14.75C11.0827 15.7611 10.2604 16.5833 9.24935 16.5833ZM9.24935 13.8334C8.74426 13.8334 8.33268 14.2449 8.33268 14.75C8.33268 15.2551 8.74426 15.6667 9.24935 15.6667C9.75443 15.6667 10.166 15.2551 10.166 14.75C10.166 14.2449 9.75443 13.8334 9.24935 13.8334Z" fill="#54657E" stroke="#54657E" stroke-width="0.5"/>
</svg>
