<svg width="24" height="24" viewBox="0 0 24 24" fill="none" xmlns="http://www.w3.org/2000/svg">
<path d="M12 23C5.9347 23 1 18.0653 1 12C1 5.9347 5.9347 1 12 1C18.0653 1 23 5.9347 23 12C23 18.0653 18.0653 23 12 23ZM12 1.95652C6.46174 1.95652 1.95652 6.46174 1.95652 12C1.95652 17.5383 6.46174 22.0435 12 22.0435C17.5383 22.0435 22.0435 17.5383 22.0435 12C22.0435 6.46174 17.5383 1.95652 12 1.95652Z" fill="#54657E" stroke="#54657E" stroke-width="0.8"/>
<path d="M17.7387 12.4783H6.26049C5.99649 12.4783 5.78223 12.264 5.78223 12C5.78223 11.736 5.99649 11.5217 6.26049 11.5217H17.7387C18.0027 11.5217 18.217 11.736 18.217 12C18.217 12.264 18.0027 12.4783 17.7387 12.4783Z" fill="#54657E" stroke="#54657E" stroke-width="0.8"/>
<path d="M11.9997 18.2174C11.7357 18.2174 11.5215 18.0031 11.5215 17.7391V6.26088C11.5215 5.99688 11.7357 5.78262 11.9997 5.78262C12.2637 5.78262 12.478 5.99688 12.478 6.26088V17.7391C12.478 18.0031 12.2637 18.2174 11.9997 18.2174Z" fill="#54657E" stroke="#54657E" stroke-width="0.8"/>
</svg>
