<svg width="23" height="23" viewBox="0 0 23 23" fill="none" xmlns="http://www.w3.org/2000/svg">
<rect x="0.8" y="1.8" width="8.48333" height="8.48333" rx="1.2" stroke="#54657E" stroke-width="1.6"/>
<rect x="0.8" y="13.7167" width="8.48333" height="8.48333" rx="1.2" stroke="#54657E" stroke-width="1.6"/>
<path d="M21.6125 6.49999H12.3048C12.0907 6.49999 11.917 6.29466 11.917 6.04166C11.917 5.78866 12.0907 5.58333 12.3048 5.58333H21.6125C21.8266 5.58333 22.0003 5.78866 22.0003 6.04166C22.0003 6.29466 21.8266 6.49999 21.6125 6.49999Z" fill="#54657E" stroke="#54657E" stroke-width="0.6"/>
<path d="M16.9583 11.0833C16.7053 11.0833 16.5 10.9096 16.5 10.6955V1.38782C16.5 1.17374 16.7053 1 16.9583 1C17.2113 1 17.4167 1.17374 17.4167 1.38782V10.6955C17.4167 10.9096 17.2113 11.0833 16.9583 11.0833Z" fill="#54657E" stroke="#54657E" stroke-width="0.6"/>
<rect x="12.717" y="13.7167" width="8.48333" height="8.48333" rx="1.2" stroke="#54657E" stroke-width="1.6"/>
</svg>
