<svg width="80" height="80" viewBox="0 0 80 80" fill="none" xmlns="http://www.w3.org/2000/svg">
<path d="M25.5625 5.875C24.838 5.875 24.25 6.463 24.25 7.1875C24.25 7.91463 24.838 8.5 25.5625 8.5C26.287 8.5 26.875 7.91463 26.875 7.1875C26.875 6.463 26.287 5.875 25.5625 5.875ZM9.8125 5.875C9.088 5.875 8.5 6.463 8.5 7.1875C8.5 7.91463 9.088 8.5 9.8125 8.5C10.537 8.5 11.125 7.91463 11.125 7.1875C11.125 6.463 10.537 5.875 9.8125 5.875ZM17.6875 5.875C16.963 5.875 16.375 6.463 16.375 7.1875C16.375 7.91463 16.963 8.5 17.6875 8.5C18.412 8.5 19 7.91463 19 7.1875C19 6.463 18.412 5.875 17.6875 5.875ZM41.3125 68.8776H8.43962C5.57837 68.8776 3.25 66.5519 3.25 63.688V13.75H68.8776V41.3125C68.8776 42.037 69.4656 42.625 70.1901 42.625C70.9146 42.625 71.5026 42.037 71.5026 41.3125V8.43963C71.5026 4.12938 67.9983 0.625001 63.688 0.625001H8.43962C4.12937 0.622376 0.625 4.12675 0.625 8.43963V63.688C0.625 67.9956 4.12937 71.5 8.43962 71.5H41.3125C42.037 71.5 42.625 70.9146 42.625 70.1901C42.625 69.4656 42.037 68.8776 41.3125 68.8776ZM3.25 8.43963C3.25 5.57838 5.57837 3.25 8.43962 3.25H63.688C66.5492 3.25 68.8776 5.57838 68.8776 8.43963V11.125H3.25V8.43963ZM67.5625 61H63.625V57.0625C63.625 56.338 63.037 55.75 62.3125 55.75C61.588 55.75 61 56.338 61 57.0625V61H57.0625C56.338 61 55.75 61.588 55.75 62.3125C55.75 63.037 56.338 63.625 57.0625 63.625H61V67.5625C61 68.287 61.588 68.875 62.3125 68.875C63.037 68.875 63.625 68.287 63.625 67.5625V63.625H67.5625C68.287 63.625 68.875 63.037 68.875 62.3125C68.875 61.588 68.287 61 67.5625 61ZM62.3125 45.25C52.9045 45.25 45.25 52.9045 45.25 62.3125C45.25 71.7205 52.9045 79.375 62.3125 79.375C71.7205 79.375 79.375 71.7205 79.375 62.3125C79.375 52.9045 71.7205 45.25 62.3125 45.25ZM62.3125 76.75C54.3535 76.75 47.875 70.2715 47.875 62.3125C47.875 54.3535 54.3535 47.875 62.3125 47.875C70.2715 47.875 76.75 54.3535 76.75 62.3125C76.75 70.2715 70.2715 76.75 62.3125 76.75Z" fill="#8493A8" stroke="#8493A8" stroke-width="0.5"/>
</svg>
