<svg width="24" height="15" viewBox="0 0 24 15" fill="none" xmlns="http://www.w3.org/2000/svg">
<path d="M-1 6.1444L-1 9.11832L25.6087 9.11832L25.6087 6.1444L-1 6.1444Z" fill="#8493A8"/>
<path d="M11.8306 3.33499V12.4078C11.8306 13.8335 10.6641 15 9.23843 15H6.77582C5.35009 15 4.18359 13.8335 4.18359 12.4078V3.33499C4.18359 1.90927 5.35009 0.742767 6.77582 0.742767H9.23843C10.6641 0.872378 11.8306 1.90927 11.8306 3.33499Z" fill="#8493A8"/>
<path d="M20.9357 5.59222V10.7767C20.9357 12.2024 19.784 13.3689 18.3764 13.3689H15.9451C14.5374 13.3689 13.3857 12.2024 13.3857 10.7767V5.59222C13.3857 4.1665 14.5374 3 15.9451 3H18.3764C19.912 3.12961 20.9357 4.1665 20.9357 5.59222Z" fill="#8493A8"/>
</svg>
