<svg width="17" height="18" viewBox="0 0 17 18" fill="none" xmlns="http://www.w3.org/2000/svg">
<path d="M10.1328 8.34439H5.36457C4.05332 8.34439 2.98047 7.27154 2.98047 5.96029V3.69538C2.98047 2.38413 4.05332 1.31128 5.36457 1.31128H10.1328C11.444 1.31128 12.5169 2.38413 12.5169 3.69538V5.96029C12.5169 7.27154 11.444 8.34439 10.1328 8.34439Z" fill="#8493A8"/>
<path d="M13.7086 16.6888H2.38411C1.07285 16.6888 0 15.6159 0 14.3046V12.0397C0 10.7285 1.07285 9.65564 2.38411 9.65564H13.7086C15.0199 9.65564 16.0927 10.7285 16.0927 12.0397V14.3046C16.0927 15.6159 15.0199 16.6888 13.7086 16.6888Z" fill="#8493A8"/>
<path d="M8.82161 0H6.4375V18H8.82161V0Z" fill="#8493A8"/>
</svg>
