<svg width="20" height="18" viewBox="0 0 20 18" fill="none" xmlns="http://www.w3.org/2000/svg">
<path d="M17.9923 2.59635V11.6836C17.9923 13.1116 16.8239 14.2799 15.3959 14.2799H12.9294C11.5014 14.2799 10.333 13.1116 10.333 11.6836V2.59635C10.333 1.16836 11.5014 0 12.9294 0H15.3959C16.8239 0 17.9923 1.16836 17.9923 2.59635Z" fill="#8493A8"/>
<path d="M8.77552 6.36106V11.5538C8.77552 12.9818 7.60716 14.1501 6.17917 14.1501H3.84245C2.41445 14.1501 1.24609 12.9818 1.24609 11.5538V6.36106C1.24609 4.93307 2.41445 3.76471 3.84245 3.76471H6.30898C7.60716 3.89453 8.77552 4.93307 8.77552 6.36106Z" fill="#8493A8"/>
<path d="M1.1585e-10 15.5335L0 18L19.4726 18L19.4726 15.5335L1.1585e-10 15.5335Z" fill="#8493A8"/>
</svg>
