<svg width="20" height="18" viewBox="0 0 20 18" fill="none" xmlns="http://www.w3.org/2000/svg">
<path d="M8.83065 6.33499V15.4078C8.83065 16.8335 7.66415 18 6.23843 18H3.77582C2.35009 18 1.18359 16.8335 1.18359 15.4078V6.33499C1.18359 4.90927 2.35009 3.74277 3.77582 3.74277H6.23843C7.66415 3.87238 8.83065 4.90927 8.83065 6.33499Z" fill="#8493A8"/>
<path d="M18.0328 6.33499V11.5194C18.0328 12.9452 16.8663 14.1117 15.4406 14.1117H12.978C11.5522 14.1117 10.3857 12.9452 10.3857 11.5194V6.33499C10.3857 4.90927 11.5522 3.74277 12.978 3.74277H15.4406C16.9959 3.87238 18.0328 4.90927 18.0328 6.33499Z" fill="#8493A8"/>
<path d="M1.15666e-10 5.24521e-06L0 2.46262L19.4417 2.46262L19.4417 5.24612e-06L1.15666e-10 5.24521e-06Z" fill="#8493A8"/>
</svg>
