<svg width="18" height="18" viewBox="0 0 18 18" fill="none" xmlns="http://www.w3.org/2000/svg">
<path d="M12.1591 8.34439H5.722C4.41074 8.34439 3.33789 7.27154 3.33789 5.96029V3.69538C3.33789 2.38413 4.41074 1.31128 5.722 1.31128H12.0399C13.3511 1.31128 14.424 2.38413 14.424 3.69538V5.96029C14.424 7.27154 13.4703 8.34439 12.1591 8.34439Z" fill="#8493A8"/>
<path d="M15.3776 16.6888H5.722C4.41074 16.6888 3.33789 15.6159 3.33789 14.3046V12.0397C3.33789 10.7285 4.41074 9.65564 5.722 9.65564H15.3776C16.6889 9.65564 17.7617 10.7285 17.7617 12.0397V14.3046C17.7617 15.6159 16.6889 16.6888 15.3776 16.6888Z" fill="#8493A8"/>
<path d="M2.38411 0H0V18H2.38411V0Z" fill="#8493A8"/>
</svg>
