<svg width="18" height="18" viewBox="0 0 18 18" fill="none" xmlns="http://www.w3.org/2000/svg">
<path d="M12.0399 8.34439H5.722C4.41074 8.34439 3.33789 7.27154 3.33789 5.96029V3.69538C3.33789 2.38413 4.41074 1.31128 5.722 1.31128H12.0399C13.3511 1.31128 14.424 2.38413 14.424 3.69538V5.96029C14.3048 7.27154 13.3511 8.34439 12.0399 8.34439Z" fill="#8493A8"/>
<path d="M12.0397 16.6888H2.38411C1.07285 16.6888 0 15.6159 0 14.3046V12.0397C0 10.7285 1.07285 9.65564 2.38411 9.65564H12.0397C13.351 9.65564 14.4238 10.7285 14.4238 12.0397V14.3046C14.3046 15.6159 13.351 16.6888 12.0397 16.6888Z" fill="#8493A8"/>
<path d="M17.8812 0H15.4971V18H17.8812V0Z" fill="#8493A8"/>
</svg>
