<svg width="20" height="14" viewBox="0 0 20 14" fill="none" xmlns="http://www.w3.org/2000/svg">
<path d="M18.6199 7.39016C18.6574 7.30046 18.6574 7.19898 18.6199 7.10927C18.6015 7.06368 18.5743 7.02324 18.5397 6.98941L12.6579 1.10754C12.5145 0.964153 12.2814 0.964153 12.138 1.10754C11.9946 1.25093 11.9946 1.48403 12.138 1.62742L17.3926 6.88205H1.36766C1.16471 6.88205 1 7.04677 1 7.24972C1 7.45267 1.16471 7.61738 1.36766 7.61738H17.3926L12.138 12.872C11.9946 13.0154 11.9946 13.2485 12.138 13.3919C12.21 13.464 12.3042 13.4993 12.3983 13.4993C12.4924 13.4993 12.5865 13.4632 12.6586 13.3919L18.5405 7.51002C18.5736 7.4762 18.6008 7.43502 18.6199 7.39016Z" fill="#54657E" stroke="#54657E"/>
</svg>
