<svg width="14" height="14" viewBox="0 0 14 14" fill="none" xmlns="http://www.w3.org/2000/svg">
<path d="M13.2745 13.4672L12.1977 11.5963C11.698 10.7621 11.4548 9.80747 11.4548 8.67733V6.99147C11.4548 4.83093 9.82973 2.96267 7.72147 2.47893V1.06667C7.72147 0.4784 7.24307 0 6.6548 0C6.06653 0 5.58813 0.4784 5.58813 1.06667V2.47893C3.47987 2.96267 1.8548 4.83093 1.8548 6.99147V8.67733C1.8548 9.808 1.6116 10.7627 1.1092 11.6005L0.0356 13.4672C-0.0118667 13.5493 -0.0118667 13.6512 0.0356 13.7333C0.0836 13.816 0.171067 13.8667 0.266533 13.8667H13.0436C13.1391 13.8667 13.2271 13.816 13.2745 13.7333C13.322 13.6512 13.322 13.5493 13.2745 13.4672Z" fill="#8493A8"/>
</svg>
