<svg width="16" height="16" viewBox="0 0 16 16" fill="none" xmlns="http://www.w3.org/2000/svg">
<path d="M8 1C4.1401 1 1 4.14009 1 8C1 11.8599 4.1401 15 8 15C11.8599 15 15 11.8599 15 8C15 4.14009 11.8599 1 8 1ZM8 14.2075C4.57726 14.2075 1.79245 11.4227 1.79245 8C1.79245 4.57726 4.57726 1.79245 8 1.79245C11.4227 1.79245 14.2075 4.57726 14.2075 8C14.2075 11.4227 11.4227 14.2075 8 14.2075ZM10.1482 6.41245L8.56 8L10.1482 9.58755C10.3027 9.74142 10.3027 9.99236 10.1482 10.1475C10.0709 10.2248 9.96925 10.2638 9.86821 10.2638C9.76717 10.2638 9.66547 10.2248 9.58821 10.1475L8 8.56L6.41245 10.1475C6.33519 10.2248 6.23349 10.2638 6.13245 10.2638C6.03076 10.2638 5.92972 10.2248 5.85245 10.1475C5.69793 9.99302 5.69793 9.74208 5.85245 9.58755L7.44 8L5.85179 6.41245C5.69726 6.25858 5.69726 6.00764 5.85179 5.85245C6.00632 5.69726 6.25727 5.69792 6.41245 5.85245L8 7.44L9.58755 5.85245C9.74274 5.69792 9.99368 5.69859 10.1482 5.85245C10.3027 6.00698 10.3027 6.25792 10.1482 6.41245Z" fill="#8493A8"/>
</svg>
