<svg width="15" height="18" viewBox="0 0 15 18" fill="none" xmlns="http://www.w3.org/2000/svg">
<path d="M13.9585 4.12642L10.4774 0.645283C10.0613 0.229245 9.50094 0 8.91509 0H3.0566C1.36698 0 0 1.36698 0 3.0566V14.9434C0 16.1915 0.74717 17.2613 1.82547 17.7368L1.83396 17.7453H1.84245C2.21604 17.9066 2.63208 18 3.06509 18H11.5557C13.2453 18 14.6123 16.633 14.6123 14.9434V5.68868C14.6038 5.10283 14.3745 4.54245 13.9585 4.12642Z" fill="#8493A8"/>
<path d="M9.31414 7.57585L9.27289 7.81081L9.46936 7.6755L10.9717 6.64089C11.2003 6.49507 11.5185 6.54781 11.6845 6.74365C11.8549 6.96279 11.8062 7.28727 11.5782 7.46083L9.05303 9.2026L9.01851 9.22641L9.0113 9.26772L8.63537 11.4209L8.61792 11.5208L8.7181 11.5368C9.57092 11.6732 10.2142 12.3739 10.2736 13.2189C10.3427 14.2287 9.57131 15.1048 8.53932 15.173L8.53927 15.1722L8.52665 15.1747C8.48553 15.1827 8.44302 15.183 8.38928 15.183C7.7039 15.183 7.07993 14.8223 6.75353 14.2396L6.75313 14.2389C6.24912 13.3559 6.57388 12.2481 7.47679 11.7513L7.51868 11.7282L7.52704 11.6811L7.76721 10.3277L7.80922 10.091L7.61173 10.2281L6.40041 11.0689L6.36634 11.0925L6.35901 11.1333C6.21041 11.9601 5.51686 12.5924 4.66494 12.6507L4.66489 12.6499L4.65251 12.6524C4.61139 12.6604 4.56888 12.6608 4.51514 12.6607L4.51365 12.6608C3.85995 12.6705 3.24571 12.33 2.90908 11.776C2.38476 10.9015 2.67093 9.78405 3.55302 9.25827C4.43595 8.74225 5.58672 9.02534 6.12174 9.89116L6.1773 9.98107L6.264 9.92062L8.02877 8.69024L8.06294 8.66642L8.0701 8.62539L8.59222 5.63146L8.59224 5.63146L8.59253 5.62953C8.63579 5.34923 8.90551 5.1569 9.1993 5.2005C9.4804 5.24375 9.67943 5.5109 9.62758 5.79088L9.62742 5.79179L9.31414 7.57585ZM5.14374 11.3503L5.14375 11.3503L5.14483 11.349C5.26408 11.2085 5.33567 11.0217 5.33567 10.8332C5.33567 10.3866 4.96545 10.0257 4.51514 10.0257H4.46293V10.0251L4.45208 10.0263C4.24276 10.0491 4.04086 10.141 3.8968 10.306L3.89679 10.306L3.89567 10.3073C3.61002 10.6462 3.64555 11.1502 3.99107 11.4426L3.99105 11.4427L3.99261 11.4439C4.33615 11.7231 4.84637 11.689 5.14374 11.3503ZM8.92358 12.7458L8.92367 12.7457L8.91946 12.7425C8.76956 12.6293 8.59226 12.5582 8.39972 12.5582H8.33707V12.5579L8.32934 12.5585C7.87871 12.5935 7.54364 12.9788 7.57952 13.425C7.61542 13.8716 8.00995 14.1975 8.45966 14.1626C8.90989 14.1277 9.24476 13.743 9.20958 13.2973C9.19709 13.0829 9.0883 12.8844 8.92358 12.7458Z" fill="white" stroke="#8493A8" stroke-width="0.2"/>
</svg>
