<svg width="17" height="18" viewBox="0 0 17 18" fill="none" xmlns="http://www.w3.org/2000/svg">
<path d="M15.9844 2.54717H10.9141V1.35849C10.9141 0.611321 10.2953 0 9.53906 0H6.96094C6.20469 0 5.58594 0.611321 5.58594 1.35849V2.54717H0.515625C0.232031 2.54717 0 2.77642 0 3.0566C0 3.33679 0.232031 3.56604 0.515625 3.56604H1.71875V14.9434C1.71875 16.6245 3.10234 18 4.8125 18H11.6875C13.3891 18 14.7812 16.633 14.7812 14.9434V3.56604H15.9844C16.268 3.56604 16.5 3.33679 16.5 3.0566C16.5 2.77642 16.268 2.54717 15.9844 2.54717ZM6.61719 1.35849C6.61719 1.1717 6.77187 1.01887 6.96094 1.01887H9.53906C9.72812 1.01887 9.88281 1.1717 9.88281 1.35849V2.54717H6.61719V1.35849Z" fill="#8493A8"/>
<path d="M6.10156 5.88394C5.81797 5.88394 5.58594 6.11319 5.58594 6.39338V14.0349C5.58594 14.3151 5.81797 14.5443 6.10156 14.5443C6.38516 14.5443 6.61719 14.3151 6.61719 14.0349V6.39338C6.61719 6.11319 6.38516 5.88394 6.10156 5.88394Z" fill="white"/>
<path d="M10.3984 5.88394C10.1148 5.88394 9.88281 6.11319 9.88281 6.39338V14.0349C9.88281 14.3151 10.1148 14.5443 10.3984 14.5443C10.682 14.5443 10.9141 14.3151 10.9141 14.0349V6.39338C10.9141 6.11319 10.682 5.88394 10.3984 5.88394Z" fill="white"/>
<path d="M15.993 4.16888H0.507031C0.223437 4.16888 0 3.93963 0 3.66794V3.04812C0 2.76793 0.223437 2.54718 0.507031 2.54718H15.993C16.2766 2.54718 16.5 2.76793 16.5 3.04812V3.66794C16.5 3.93963 16.2766 4.16888 15.993 4.16888Z" fill="#8493A8"/>
</svg>
