<svg width="18" height="18" viewBox="0 0 18 18" fill="none" xmlns="http://www.w3.org/2000/svg">
<path d="M15.9091 1H2.81818C1.816 1 1 1.816 1 2.81818V12.2727C1 13.2749 1.816 14.0909 2.81818 14.0909H9V16.2727H4.27273C4.072 16.2727 3.90909 16.4356 3.90909 16.6364C3.90909 16.8371 4.072 17 4.27273 17H14.4545C14.6553 17 14.8182 16.8371 14.8182 16.6364C14.8182 16.4356 14.6553 16.2727 14.4545 16.2727H9.72727V14.0909H15.9091C16.9113 14.0909 17.7273 13.2749 17.7273 12.2727V2.81818C17.7273 1.816 16.9113 1 15.9091 1ZM17 12.2727C17 12.8742 16.5105 13.3636 15.9091 13.3636H2.81818C2.21673 13.3636 1.72727 12.8742 1.72727 12.2727V11.1818H17V12.2727ZM17 10.4545H1.72727V2.81818C1.72727 2.21673 2.21673 1.72727 2.81818 1.72727H15.9091C16.5105 1.72727 17 2.21673 17 2.81818V10.4545Z" fill="#8493A8" stroke="#8493A8" stroke-width="0.5"/>
</svg>
