<svg width="16" height="18" viewBox="0 0 16 18" fill="none" xmlns="http://www.w3.org/2000/svg">
<path d="M14.6394 3.60679L11.5723 0.585573C11.1943 0.203678 10.6874 0 10.1548 0H5.00007C3.65985 0 2.50863 0.958982 2.28526 2.25743C0.970805 2.48656 0 3.61528 0 4.93918V15.2758C0 16.7779 1.23713 18 2.75777 18H10.2321C11.5723 18 12.715 17.041 12.9383 15.7426C14.2614 15.5219 15.2236 14.3847 15.2236 13.0693V5.00707C15.2236 4.48091 15.0174 3.9802 14.6394 3.60679ZM10.2235 16.9731H2.74918C1.79556 16.9731 1.02235 16.2093 1.02235 15.2673V4.93918C1.02235 4.19236 1.52064 3.5389 2.23371 3.31825V13.0523C2.23371 14.5545 3.47084 15.7765 4.99148 15.7765H11.8558C11.6411 16.4894 10.9795 16.9731 10.2235 16.9731Z" fill="#8493A8"/>
<path d="M6.11703 7.66335H11.3491C11.6326 7.66335 11.8645 7.43421 11.8645 7.15415C11.8645 6.8741 11.6326 6.64496 11.3491 6.64496H6.11703C5.83352 6.64496 5.60156 6.8741 5.60156 7.15415C5.60156 7.43421 5.83352 7.66335 6.11703 7.66335Z" fill="white"/>
<path d="M6.11703 10.9222H11.3491C11.6326 10.9222 11.8645 10.6931 11.8645 10.413C11.8645 10.1329 11.6326 9.90381 11.3491 9.90381H6.11703C5.83352 9.90381 5.60156 10.1329 5.60156 10.413C5.60156 10.6931 5.83352 10.9222 6.11703 10.9222Z" fill="white"/>
</svg>
