<svg width="18" height="11" viewBox="0 0 18 11" fill="none" xmlns="http://www.w3.org/2000/svg">
<path d="M17.8045 4.80496C15.8655 1.79634 12.573 0 8.99971 0C5.42643 0 2.1347 1.79634 0.194874 4.80496C-0.0649582 5.20906 -0.0649582 5.7295 0.194874 6.1336C2.1347 9.14145 5.42643 10.9378 8.99971 10.9378C12.573 10.9378 15.8655 9.14145 17.8045 6.1336C18.0652 5.7295 18.0652 5.20829 17.8045 4.80496ZM17.0227 5.62867C15.2551 8.37049 12.2558 10.007 8.99971 10.007C5.74366 10.007 2.74511 8.37049 0.977475 5.62867C0.915425 5.53327 0.915425 5.40452 0.977475 5.30912C2.74511 2.5673 5.74366 0.930744 8.99971 0.930744C12.2558 0.930744 15.2543 2.5673 17.0227 5.30912C17.084 5.40452 17.084 5.53327 17.0227 5.62867ZM8.99971 2.67666C7.4601 2.67666 6.20748 3.92929 6.20748 5.46889C6.20748 7.0085 7.4601 8.26113 8.99971 8.26113C10.5393 8.26113 11.7919 7.0085 11.7919 5.46889C11.7919 3.92929 10.5393 2.67666 8.99971 2.67666ZM8.99971 7.33038C7.97356 7.33038 7.13822 6.49504 7.13822 5.46889C7.13822 4.44275 7.97356 3.60741 8.99971 3.60741C10.0259 3.60741 10.8612 4.44275 10.8612 5.46889C10.8612 6.49504 10.0259 7.33038 8.99971 7.33038Z" fill="#8493A8"/>
</svg>
