<svg width="18" height="18" viewBox="0 0 18 18" fill="none" xmlns="http://www.w3.org/2000/svg">
<path d="M13.8415 4.26575H8.98225C8.59975 4.26575 8.22925 4.10675 7.9645 3.83075L6.8935 2.71175C6.46 2.2595 5.8525 2 5.2255 2H3.3085C2.03575 2 1 3.035 1 4.30775V13.3693C1 14.642 2.03575 15.677 3.3085 15.677H13.8415C15.1142 15.677 16.15 14.642 16.15 13.3693V6.57425C16.15 5.3015 15.1142 4.26575 13.8415 4.26575ZM15.25 13.3693C15.25 14.1455 14.6185 14.7778 13.8415 14.7778H3.3085C2.5315 14.7778 1.9 14.1455 1.9 13.3693V4.30775C1.9 3.5315 2.5315 2.89925 3.3085 2.89925H5.2255C5.608 2.89925 5.9785 3.05825 6.24325 3.33425L7.31425 4.45325C7.74775 4.90625 8.35525 5.165 8.98225 5.165H13.8415C14.6185 5.165 15.25 5.79725 15.25 6.57425V13.3693Z" fill="#EB6641" stroke="#EB6641" stroke-width="0.2"/>
<path d="M13.4 10.7C13.4 10.9483 13.1983 11.15 12.95 11.15H8.45C8.201 11.15 8 10.9483 8 10.7C8 10.4518 8.20175 10.25 8.45 10.25H12.95C13.199 10.25 13.4 10.4518 13.4 10.7Z" fill="#EB6641" stroke="#EB6641" stroke-width="0.2"/>
<path d="M10.7 7.9999C10.9483 7.9999 11.15 8.20165 11.15 8.4499V12.9499C11.15 13.1989 10.9483 13.3999 10.7 13.3999C10.4518 13.3999 10.25 13.1982 10.25 12.9499V8.4499C10.25 8.2009 10.4518 7.9999 10.7 7.9999Z" fill="#EB6641" stroke="#EB6641" stroke-width="0.2"/>
</svg>
