<svg width="16" height="16" viewBox="0 0 16 16" fill="none" xmlns="http://www.w3.org/2000/svg">
<path d="M8 15C4.14026 15 1 11.8597 1 8C1 4.14026 4.14026 1 8 1C11.8597 1 15 4.14026 15 8C15 11.8597 11.8597 15 8 15ZM8 1.6087C4.47565 1.6087 1.6087 4.47565 1.6087 8C1.6087 11.5243 4.47565 14.3913 8 14.3913C11.5243 14.3913 14.3913 11.5243 14.3913 8C14.3913 4.47565 11.5243 1.6087 8 1.6087Z" fill="#8493A8" stroke="#8493A8" stroke-width="0.2"/>
<path d="M7.99958 10.7391C7.83158 10.7391 7.69523 10.6028 7.69523 10.4348V9.97401C7.69523 9.40488 7.91679 8.87044 8.31914 8.46749L9.07514 7.71149C9.36305 7.42357 9.52131 7.04131 9.52131 6.6347V6.17392C9.52131 5.33514 8.83897 4.65218 7.99958 4.65218C7.16018 4.65218 6.47784 5.33514 6.47784 6.17392V6.78262C6.47784 6.95062 6.34149 7.08697 6.17349 7.08697C6.00549 7.08697 5.86914 6.95062 5.86914 6.78262V6.17392C5.86914 4.99914 6.82479 4.04349 7.99958 4.04349C9.17436 4.04349 10.13 4.99914 10.13 6.17392V6.6347C10.13 7.20384 9.90844 7.73827 9.5061 8.14123L8.7501 8.89723C8.46218 9.18514 8.30392 9.5674 8.30392 9.97401V10.4348C8.30392 10.6028 8.16758 10.7391 7.99958 10.7391Z" fill="#8493A8" stroke="#8493A8" stroke-width="0.2"/>
<path d="M8.0003 12.5652C7.6643 12.5652 7.3916 12.2919 7.3916 11.9565C7.3916 11.6211 7.6643 11.3478 8.0003 11.3478C8.3363 11.3478 8.60899 11.6211 8.60899 11.9565C8.60899 12.2919 8.3363 12.5652 8.0003 12.5652ZM8.0003 11.9559C8.0003 11.9565 8.0003 11.9565 8.0003 11.9559L8.30464 11.9565L8.0003 11.9559Z" fill="#8493A8" stroke="#8493A8" stroke-width="0.2"/>
</svg>
