<svg width="19" height="18" viewBox="0 0 19 18" fill="none" xmlns="http://www.w3.org/2000/svg">
<path d="M18.535 9.12844L10.7844 1.37781C10.2807 0.874062 9.40159 0.874062 8.897 1.37781L1.14637 9.12844C0.951209 9.3236 0.951209 9.64053 1.14637 9.83653C1.34153 10.0325 1.65847 10.0317 1.85446 9.83653L2.92702 8.76397V14.5063C2.92702 15.8816 4.08716 17 5.51251 17H13.8528C15.2781 17 16.4383 15.8816 16.4383 14.5063V8.44704L17.8278 9.83653C17.9254 9.93411 18.0538 9.98332 18.1814 9.98332C18.309 9.98332 18.4374 9.93411 18.535 9.83653C18.731 9.64053 18.731 9.3236 18.535 9.12844ZM11.0088 15.9658H8.67348V11.9625H11.0088V15.9658ZM15.4374 14.5063C15.4374 15.3294 14.7269 15.9992 13.8528 15.9992H12.0096V11.4621C12.0096 11.1852 11.7852 10.9616 11.5092 10.9616H8.17306C7.89616 10.9616 7.67264 11.186 7.67264 11.4621V15.9992H5.51251C4.63845 15.9992 3.92786 15.3294 3.92786 14.5063V7.76314L9.60509 2.0859C9.7352 1.9558 9.94621 1.9558 10.0763 2.0859L15.4366 7.44704V14.5063H15.4374Z" fill="#8493A8" stroke="#8493A8" stroke-width="0.1"/>
</svg>
