<svg width="18" height="18" viewBox="0 0 18 18" fill="none" xmlns="http://www.w3.org/2000/svg">
<path d="M16.124 2.10606L15.8953 1.87731C14.7249 0.707563 12.8215 0.707563 11.6511 1.87731L9.88648 3.64194C9.31961 4.2088 9.0075 4.96174 9.0075 5.76402C9.0075 6.49828 9.28026 7.18586 9.76043 7.73272L7.74439 9.76811C6.56664 8.7284 4.76933 8.76042 3.6436 9.88481L1.87898 11.6494C1.31211 12.2163 1 12.9692 1 13.7715C1 14.5738 1.31211 15.3267 1.87898 15.8943L2.10773 16.123C2.6926 16.7079 3.46154 17 4.22981 17C4.99808 17 5.76702 16.7079 6.35189 16.123L8.11652 14.3584C8.68339 13.7915 8.9955 13.0386 8.9955 12.2363C8.9955 11.4887 8.71473 10.7891 8.21789 10.2369L10.2286 8.20689C10.7988 8.72374 11.5157 8.99183 12.2373 8.99183C13.0056 8.99183 13.7745 8.69973 14.3594 8.11485L16.124 6.35023C16.6909 5.78336 17.003 5.03043 17.003 4.22814C17.003 3.42586 16.6909 2.67359 16.124 2.10606ZM8.32793 12.237C8.32793 12.8605 8.08517 13.4461 7.64435 13.8876L5.87973 15.6522C4.97007 16.5612 3.48888 16.5612 2.57856 15.6522L2.34981 15.4234C1.90899 14.9826 1.66624 14.3964 1.66624 13.7722C1.66624 13.1486 1.90899 12.5631 2.34981 12.1216L4.11444 10.357C4.56926 9.90215 5.16748 9.67474 5.76502 9.67474C6.30521 9.67474 6.84007 9.87081 7.27489 10.2423L5.77102 11.7601C5.64164 11.8909 5.64231 12.1023 5.77302 12.2316C5.83838 12.2963 5.92308 12.3283 6.00777 12.3283C6.0938 12.3283 6.17917 12.295 6.24452 12.2296L7.74772 10.7118C8.11719 11.1359 8.32793 11.6674 8.32793 12.237ZM15.6525 5.87873L13.8879 7.64335C13.0123 8.519 11.6131 8.54167 10.6974 7.73338L12.1906 6.22618C12.32 6.09547 12.3193 5.88406 12.1886 5.75468C12.0579 5.6253 11.8465 5.62664 11.7171 5.75735L10.2293 7.25922C9.87581 6.83907 9.67374 6.31955 9.67374 5.76402C9.67374 5.14047 9.91649 4.55493 10.3573 4.11344L12.1219 2.34881C12.5768 1.89398 13.175 1.66657 13.7725 1.66657C14.3701 1.66657 14.9683 1.89465 15.4231 2.34881L15.6519 2.57756C16.0927 3.01838 16.3354 3.60459 16.3354 4.22881C16.3361 4.8517 16.0933 5.4379 15.6525 5.87873Z" fill="#EB6641" stroke="#EB6641" stroke-width="0.3"/>
</svg>
