<svg width="18" height="18" viewBox="0 0 18 18" fill="none" xmlns="http://www.w3.org/2000/svg">
<path d="M10.6552 17H2.37931C1.61848 17 1 16.381 1 15.6207V2.37931C1 1.61903 1.61848 1 2.37931 1H10.6552C11.416 1 12.0345 1.61903 12.0345 2.37931V7.06897C12.0345 7.22124 11.9109 7.34483 11.7586 7.34483C11.6063 7.34483 11.4828 7.22124 11.4828 7.06897V2.37931C11.4828 1.92303 11.1114 1.55172 10.6552 1.55172H2.37931C1.92303 1.55172 1.55172 1.92303 1.55172 2.37931V15.6207C1.55172 16.077 1.92303 16.4483 2.37931 16.4483H10.6552C11.1114 16.4483 11.4828 16.077 11.4828 15.6207V10.931C11.4828 10.7788 11.6063 10.6552 11.7586 10.6552C11.9109 10.6552 12.0345 10.7788 12.0345 10.931V15.6207C12.0345 16.381 11.416 17 10.6552 17Z" fill="#54657E" stroke="#54657E" stroke-width="0.6"/>
<path d="M16.7239 9.27585H5.96532C5.81304 9.27585 5.68945 9.15226 5.68945 8.99998C5.68945 8.84771 5.81304 8.72412 5.96532 8.72412H16.7239C16.8762 8.72412 16.9998 8.84771 16.9998 8.99998C16.9998 9.15226 16.8762 9.27585 16.7239 9.27585Z" fill="#54657E" stroke="#54657E" stroke-width="0.6"/>
<path d="M14.5172 11.4827C14.4466 11.4827 14.376 11.4557 14.3219 11.4022C14.2143 11.2946 14.2143 11.1197 14.3219 11.0121L16.3335 9.00053L14.3219 6.98895C14.2143 6.88136 14.2143 6.70646 14.3219 6.59888C14.4295 6.49129 14.6044 6.49129 14.712 6.59888L16.9189 8.80577C17.0265 8.91336 17.0265 9.08826 16.9189 9.19584L14.712 11.4027C14.6585 11.4557 14.5878 11.4827 14.5172 11.4827Z" fill="#54657E" stroke="#54657E" stroke-width="0.6"/>
</svg>
