<svg width="12" height="18" viewBox="0 0 12 18" fill="none" xmlns="http://www.w3.org/2000/svg">
<path d="M9 -3.05176e-05H2.20755C0.99 -3.05176e-05 0 0.989969 0 2.20752V15.7924C0 17.01 0.990849 18 2.20755 18H9C10.2175 18 11.2075 17.0091 11.2075 15.7924V2.20752C11.2075 0.989969 10.2175 -3.05176e-05 9 -3.05176e-05ZM10.1887 15.7924C10.1887 16.4479 9.65547 16.9811 9 16.9811H2.20755C1.55208 16.9811 1.01887 16.4479 1.01887 15.7924V2.20752C1.01887 1.55204 1.55208 1.01884 2.20755 1.01884H9C9.65547 1.01884 10.1887 1.55204 10.1887 2.20752V15.7924ZM6.96226 2.63204C6.96226 2.91393 6.73387 3.14148 6.45283 3.14148H4.75472C4.47283 3.14148 4.24528 2.91308 4.24528 2.63204C4.24528 2.35101 4.47368 2.12261 4.75472 2.12261H6.45283C6.73472 2.12261 6.96226 2.35016 6.96226 2.63204ZM6.45283 15.0894C6.45283 15.5581 6.07245 15.9385 5.60377 15.9385C5.13509 15.9385 4.75472 15.5581 4.75472 15.0894C4.75472 14.6207 5.13509 14.2403 5.60377 14.2403C6.07245 14.2403 6.45283 14.6207 6.45283 15.0894Z" fill="#8493A8"/>
</svg>
