<svg width="24" height="24" viewBox="0 0 24 24" fill="none" xmlns="http://www.w3.org/2000/svg">
<g clip-path="url(#clip0)">
<path d="M11.9999 3C9.98499 3.00238 8.05328 3.80386 6.62852 5.22862C5.20376 6.65338 4.40228 8.58509 4.3999 10.6V16.6C4.3999 17.598 4.59648 18.5863 4.97842 19.5084C5.36035 20.4305 5.92017 21.2683 6.62589 21.974C7.33162 22.6797 8.16943 23.2395 9.09151 23.6215C10.0136 24.0034 11.0019 24.2 11.9999 24.2C12.9979 24.2 13.9862 24.0034 14.9083 23.6215C15.8304 23.2395 16.6682 22.6797 17.3739 21.974C18.0796 21.2683 18.6395 20.4305 19.0214 19.5084C19.4033 18.5863 19.5999 17.598 19.5999 16.6V10.6C19.5975 8.58509 18.796 6.65338 17.3713 5.22862C15.9465 3.80386 14.0148 3.00238 11.9999 3ZM18.3999 16.6C18.3999 18.2974 17.7256 19.9253 16.5254 21.1255C15.3252 22.3257 13.6973 23 11.9999 23C10.3025 23 8.67465 22.3257 7.47442 21.1255C6.27419 19.9253 5.5999 18.2974 5.5999 16.6V10.6C5.5999 8.90261 6.27419 7.27475 7.47442 6.07452C8.67465 4.87428 10.3025 4.2 11.9999 4.2C13.6973 4.2 15.3252 4.87428 16.5254 6.07452C17.7256 7.27475 18.3999 8.90261 18.3999 10.6V16.6ZM12.5999 7.473V11.017C12.5999 11.1761 12.5367 11.3287 12.4242 11.4413C12.3116 11.5538 12.159 11.617 11.9999 11.617C11.8408 11.617 11.6882 11.5538 11.5756 11.4413C11.4631 11.3287 11.3999 11.1761 11.3999 11.017V7.473C11.3999 7.31387 11.4631 7.16126 11.5756 7.04874C11.6882 6.93621 11.8408 6.873 11.9999 6.873C12.159 6.873 12.3116 6.93621 12.4242 7.04874C12.5367 7.16126 12.5999 7.31387 12.5999 7.473Z" fill="#EB6641"/>
</g>
<defs>
<clipPath id="clip0">
<rect width="24" height="24" fill="white"/>
</clipPath>
</defs>
</svg>
