<svg width="17" height="19" viewBox="0 0 17 19" fill="none" xmlns="http://www.w3.org/2000/svg">
<path d="M12.8395 10.1513V9.09244V7.35294V3.34454C12.8395 2.73949 12.389 2.28571 11.7883 2.28571H10.5119H9.91122H8.93511C9.16037 2.28571 9.31054 2.43697 9.31054 2.66386V3.04202H3.60408V2.58823C3.60408 2.36134 3.75425 2.21008 3.97951 2.21008H2.92831H2.32763H1.05119C0.45051 2.21008 0 2.73949 0 3.34454V17.0336C0 17.6387 0.45051 18.0924 1.05119 18.0924H3.52899H5.18086C5.18086 17.7143 5.18086 17.4118 5.18086 17.0336V12.1177C5.18086 10.9832 6.08188 10.0756 7.20816 10.0756H12.8395V10.1513Z" fill="#8493A8"/>
<path d="M15.1676 11.0588H12.9151H7.50898C6.83321 11.0588 6.30762 11.5882 6.30762 12.2689V17.7899C6.30762 18.3193 6.60796 18.7731 7.05847 18.9244C7.20864 19 7.35881 19 7.50898 19H15.2427C15.9185 19 16.4441 18.4706 16.4441 17.7899V12.2689C16.4441 11.5882 15.8434 11.0588 15.1676 11.0588ZM13.8912 17.1092H12.9151H8.71034C8.41 17.1092 8.18474 16.8823 8.18474 16.5798C8.18474 16.2773 8.41 16.0504 8.71034 16.0504H12.9151H13.8912C14.1165 16.0504 14.4168 16.2773 14.4168 16.5798C14.4168 16.8823 14.1165 17.1092 13.8912 17.1092ZM13.8912 13.9328H12.9151H8.71034C8.41 13.9328 8.18474 13.7059 8.18474 13.4033C8.18474 13.1765 8.41 12.8739 8.71034 12.8739H12.9151H13.8912C14.1165 12.8739 14.4168 13.1008 14.4168 13.4033C14.4168 13.7059 14.1165 13.9328 13.8912 13.9328Z" fill="#8493A8"/>
<path d="M7.35766 6.14286H5.6307C4.42934 6.14286 3.52832 5.15967 3.52832 4.02521V3.11765C3.52832 1.90756 4.50443 1 5.6307 1H7.35766C8.55902 1 9.46004 1.98319 9.46004 3.11765V4.02521C9.46004 5.2353 8.55902 6.14286 7.35766 6.14286Z" stroke="#8493A8" stroke-miterlimit="10"/>
</svg>
