<svg width="18" height="13" viewBox="0 0 18 13" fill="none" xmlns="http://www.w3.org/2000/svg">
<path d="M5.66662 12H13.3332C13.5172 12 13.6665 11.8507 13.6665 11.6667C13.6665 11.4827 13.5172 11.3333 13.3332 11.3333H5.66662C3.46064 11.3333 1.66666 9.53936 1.66666 7.33338C1.66666 5.1274 3.46064 3.33342 5.66662 3.33342H15.8618L14.4312 4.76407C14.3012 4.89407 14.3012 5.1054 14.4312 5.2354C14.5612 5.3654 14.7725 5.3654 14.9025 5.2354L16.9018 3.23609C16.9325 3.20542 16.9572 3.16809 16.9745 3.12743C17.0085 3.04609 17.0085 2.95409 16.9745 2.87276C16.9578 2.83143 16.9332 2.79476 16.9018 2.7641L14.9025 0.764782C14.8372 0.69945 14.7519 0.666784 14.6665 0.666784C14.5812 0.666784 14.4959 0.69945 14.4305 0.764116C14.3005 0.894114 14.3005 1.10545 14.4305 1.23545L15.8618 2.66676H5.66662C3.09331 2.66676 1 4.76008 1 7.33338C1 9.90669 3.09331 12 5.66662 12Z" fill="#8493A8" stroke="#8493A8" stroke-width="0.5"/>
</svg>
