<svg width="18" height="18" viewBox="0 0 18 18" fill="none" xmlns="http://www.w3.org/2000/svg">
<path d="M17.8241 16.9757L12.1805 11.3321C13.1897 10.1321 13.7999 8.58653 13.7999 6.89994C13.7999 3.09537 10.7045 0 6.89994 0C3.09537 0 0 3.09537 0 6.89994C0 10.7045 3.09537 13.7999 6.89994 13.7999C8.58653 13.7999 10.1321 13.1897 11.3321 12.1805L16.9757 17.8241C17.0927 17.941 17.2463 17.9998 17.3999 17.9998C17.5535 17.9998 17.7071 17.941 17.8241 17.8241C18.0587 17.5895 18.0587 17.2103 17.8241 16.9757ZM6.89994 12.5999C3.75717 12.5999 1.19999 10.0427 1.19999 6.89994C1.19999 3.75717 3.75717 1.19999 6.89994 1.19999C10.0427 1.19999 12.5999 3.75717 12.5999 6.89994C12.5999 10.0427 10.0427 12.5999 6.89994 12.5999Z" fill="#8493A8"/>
</svg>
