<svg width="18" height="17" viewBox="0 0 18 17" fill="none" xmlns="http://www.w3.org/2000/svg">
<path d="M0 1.875C0 1.56375 0.252187 1.3125 0.5625 1.3125H11.43C11.6691 0.552188 12.3797 0 13.2187 0C14.0578 0 14.7684 0.552188 15.0075 1.3125H17.4375C17.7478 1.3125 18 1.56469 18 1.875C18 2.18531 17.7478 2.4375 17.4375 2.4375H15.0075C14.7684 3.19781 14.0578 3.75 13.2187 3.75C12.3797 3.75 11.6691 3.19781 11.43 2.4375H0.5625C0.25125 2.4375 0 2.18625 0 1.875ZM17.4375 7.64062H6.57C6.33094 6.88031 5.62031 6.32812 4.78125 6.32812C3.94219 6.32812 3.23156 6.88031 2.9925 7.64062H0.5625C0.25125 7.64062 0 7.89281 0 8.20312C0 8.51344 0.252187 8.76562 0.5625 8.76562H2.9925C3.23156 9.52594 3.94219 10.0781 4.78125 10.0781C5.62031 10.0781 6.33094 9.52594 6.57 8.76562H17.4375C17.7478 8.76562 18 8.51344 18 8.20312C18 7.89281 17.7478 7.64062 17.4375 7.64062ZM17.4375 13.9688H15.0075C14.7684 13.2075 14.0578 12.6562 13.2187 12.6562C12.3797 12.6562 11.6681 13.2084 11.43 13.9688H0.5625C0.25125 13.9688 0 14.2209 0 14.5312C0 14.8416 0.252187 15.0938 0.5625 15.0938H11.43C11.6691 15.855 12.3797 16.4062 13.2187 16.4062C14.0578 16.4062 14.7694 15.8541 15.0075 15.0938H17.4375C17.7478 15.0938 18 14.8416 18 14.5312C18 14.2209 17.7478 13.9688 17.4375 13.9688Z" fill="#EBEDF3"/>
</svg>
