<svg width="14" height="14" viewBox="0 0 14 14" fill="none" xmlns="http://www.w3.org/2000/svg">
<path d="M4.16602 2.80987H6.78185V0.0986023C5.71614 0.24649 4.74731 1.2817 4.16602 2.80987Z" fill="#8493A8"/>
<path d="M6.78152 6.7535V3.3028H3.97192C3.63283 4.28871 3.43907 5.47181 3.39062 6.7535H6.78152Z" fill="#8493A8"/>
<path d="M10.6575 6.7535C10.6575 5.47181 10.4153 4.28871 10.0762 3.3028H7.2666V6.7535H10.6575Z" fill="#8493A8"/>
<path d="M7.2666 0.0986023V2.80987H9.88243C9.30114 1.2817 8.33231 0.24649 7.2666 0.0986023Z" fill="#8493A8"/>
<path d="M10.7051 10.2042H13.2725C13.7084 9.31691 13.9991 8.331 13.9991 7.24649H11.0926C11.0926 8.2817 10.9473 9.31691 10.7051 10.2042Z" fill="#8493A8"/>
<path d="M6.78152 7.24649H3.39062C3.39062 8.331 3.53595 9.31691 3.77816 10.2042H6.73307V7.24649H6.78152Z" fill="#8493A8"/>
<path d="M2.90648 6.7535C2.90648 5.52111 3.14868 4.33801 3.43933 3.3028H1.01727C0.38753 4.33801 0.0484413 5.47181 0 6.7535H2.90648Z" fill="#8493A8"/>
<path d="M2.90648 7.24649H0C0.0484413 8.331 0.290648 9.31691 0.72662 10.2042H3.29401C3.10024 9.31691 2.95492 8.2817 2.90648 7.24649Z" fill="#8493A8"/>
<path d="M3.48749 10.6972H1.06543C2.0827 12.4225 3.77814 13.6549 5.76424 14C4.79541 13.4577 3.97191 12.2746 3.48749 10.6972Z" fill="#8493A8"/>
<path d="M3.63319 2.80986C4.1176 1.47887 4.89266 0.492958 5.7646 0C3.92383 0.295775 2.37371 1.38028 1.35645 2.80986H3.63319Z" fill="#8493A8"/>
<path d="M10.5599 10.6972C10.0755 12.2746 9.25203 13.4577 8.2832 14C10.2693 13.6056 11.9647 12.3732 12.982 10.6972H10.5599Z" fill="#8493A8"/>
<path d="M6.78128 13.9014V10.6972H3.97168C4.55298 12.5211 5.61868 13.7042 6.78128 13.9014Z" fill="#8493A8"/>
<path d="M10.4146 2.80986H12.6914C11.6741 1.38028 10.0755 0.295775 8.2832 0C9.15515 0.492958 9.88177 1.47887 10.4146 2.80986Z" fill="#8493A8"/>
<path d="M10.5605 3.3028C10.8996 4.33801 11.0934 5.52111 11.0934 6.7535H13.9999C13.9514 5.47181 13.6123 4.33801 12.9826 3.3028H10.5605Z" fill="#8493A8"/>
<path d="M10.0762 10.6972H7.2666V13.9014C8.42919 13.7042 9.4949 12.5211 10.0762 10.6972Z" fill="#8493A8"/>
<path d="M7.2666 7.24649V10.2042H10.2215C10.4637 9.31691 10.6091 8.331 10.6091 7.24649H7.2666Z" fill="#8493A8"/>
</svg>
