<svg width="18" height="18" viewBox="0 0 18 18" fill="none" xmlns="http://www.w3.org/2000/svg">
<path d="M9 17C4.58887 17 1 13.4111 1 9C1 4.58887 4.58887 1 9 1C13.4111 1 17 4.58887 17 9C17 13.4111 13.4111 17 9 17ZM9 1.69565C4.97217 1.69565 1.69565 4.97217 1.69565 9C1.69565 13.0278 4.97217 16.3043 9 16.3043C13.0278 16.3043 16.3043 13.0278 16.3043 9C16.3043 4.97217 13.0278 1.69565 9 1.69565Z" fill="#EB6641" stroke="#EB6641" stroke-width="0.5"/>
<path d="M7.95663 12.4781C7.86759 12.4781 7.77854 12.444 7.71037 12.3766L4.23211 8.8983C4.09646 8.76264 4.09646 8.54212 4.23211 8.40647C4.36776 8.27082 4.58828 8.27082 4.72394 8.40647L7.95663 11.6385L13.2756 6.31951C13.4112 6.18386 13.6318 6.18386 13.7674 6.31951C13.9031 6.45516 13.9031 6.67569 13.7674 6.81134L8.2022 12.3766C8.13472 12.444 8.04568 12.4781 7.95663 12.4781Z" fill="#EB6641" stroke="#EB6641" stroke-width="0.5"/>
</svg>
