<svg width="18" height="13" viewBox="0 0 18 13" fill="none" xmlns="http://www.w3.org/2000/svg">
<path d="M12.3334 12H4.6668C4.4828 12 4.33347 11.8507 4.33347 11.6667C4.33347 11.4827 4.4828 11.3333 4.6668 11.3333H12.3334C14.5394 11.3333 16.3333 9.53936 16.3333 7.33338C16.3333 5.1274 14.5394 3.33342 12.3334 3.33342H2.13815L3.56881 4.76407C3.69881 4.89407 3.69881 5.1054 3.56881 5.2354C3.43881 5.3654 3.22748 5.3654 3.09748 5.2354L1.09817 3.23609C1.0675 3.20542 1.04283 3.16809 1.0255 3.12743C0.9915 3.04609 0.9915 2.95409 1.0255 2.87276C1.04217 2.83143 1.06683 2.79476 1.09817 2.7641L3.09748 0.764782C3.16281 0.69945 3.24814 0.666784 3.33348 0.666784C3.41881 0.666784 3.50414 0.69945 3.56947 0.764116C3.69947 0.894114 3.69947 1.10545 3.56947 1.23545L2.13815 2.66676H12.3334C14.9067 2.66676 17 4.76008 17 7.33338C17 9.90669 14.9067 12 12.3334 12Z" fill="#8493A8" stroke="#8493A8" stroke-width="0.5"/>
</svg>
